<svg t="1650958053527" class="icon" viewBox="0 0 1024 1024" version="1.1" xmlns="http://www.w3.org/2000/svg" p-id="18842" width="200" height="200"><path d="M959 774c-0.3-0.8-0.6-1.6-1-2.4-0.4-0.8-0.8-1.6-1.3-2.4L534.3 76.8c-4.7-7.8-13.1-12-21.6-11.9h-1c-8.7-0.3-17.4 4-22.2 11.9L67.9 768c-1.1 1.7-2.1 3.5-2.8 5.3-1.2 3.3-1.8 6.7-1.6 10.1 0 10.2 6.3 19.9 16.4 23.6l422.3 151c2.9 1 5.8 1.5 8.7 1.5h1.5c4.6 0 8.8-1.2 12.5-3.4l414.4-148.4c8.7-1.4 16.4-7.3 19.6-16.1 1.1-2.9 1.5-5.9 1.5-8.8 0.1-2.9-0.3-5.9-1.4-8.8zM537.5 178l340.2 557.8-340.2-121.9V178z m-50 434.8L146.8 734.7l340.7-558.6v436.7z m0 53.1v233.7L160.6 782.8l326.9-116.9z m50 1.1l323.2 115.8-323.2 115.8V667z" p-id="18843" fill="#09a82d"></path></svg>